<svg width="32" height="32" viewBox="0 0 32 32" fill="none" xmlns="http://www.w3.org/2000/svg">
<rect x="0.00109863" width="32.0011" height="32" rx="12" fill="#8B51FF"/>
<path d="M21.9576 15.9999C21.9576 16.2633 21.8566 16.5178 21.6678 16.7022C21.4834 16.8909 21.2287 16.9962 20.9653 16.9962H16.9961V20.964C16.9961 21.2273 16.8907 21.4819 16.7019 21.6662C16.5175 21.8506 16.2673 21.9559 16.0038 21.9559C15.7404 21.9559 15.4857 21.8506 15.3013 21.6662C15.1125 21.4819 15.0071 21.2273 15.0071 20.964V16.9962H11.038C10.7745 16.9962 10.5198 16.8909 10.3354 16.7022C10.151 16.5178 10.0457 16.2633 10.0457 15.9999C10.0457 15.7366 10.151 15.4864 10.3354 15.2977C10.5198 15.1133 10.7745 15.008 11.038 15.008H15.0071V11.0403C15.0071 10.7769 15.1125 10.5224 15.3013 10.338C15.4857 10.1493 15.7404 10.0439 16.0038 10.0439C16.2673 10.0439 16.5175 10.1493 16.7019 10.338C16.8907 10.5224 16.9961 10.7769 16.9961 11.0403V15.008H20.9653C21.2287 15.008 21.4834 15.1133 21.6678 15.2977C21.8566 15.4864 21.9576 15.7366 21.9576 15.9999Z" fill="white"/>
</svg>
