<svg width="24" height="24" viewBox="0 0 24 24" fill="none" xmlns="http://www.w3.org/2000/svg">
<path d="M12.7499 11.25V16.5C12.7499 16.6989 12.6709 16.8897 12.5303 17.0303C12.3896 17.171 12.1989 17.25 11.9999 17.25C11.801 17.25 11.6103 17.171 11.4696 17.0303C11.329 16.8897 11.2499 16.6989 11.2499 16.5V11.25C11.2499 11.0511 11.329 10.8603 11.4696 10.7197C11.6103 10.579 11.801 10.5 11.9999 10.5C12.1989 10.5 12.3896 10.579 12.5303 10.7197C12.6709 10.8603 12.7499 11.0511 12.7499 11.25ZM22.4868 9.19781L21.1874 18.9487C21.1393 19.3091 20.9618 19.6397 20.6882 19.8791C20.4145 20.1184 20.0632 20.2502 19.6996 20.25H4.30025C3.93668 20.2502 3.58538 20.1184 3.31171 19.8791C3.03804 19.6397 2.86061 19.3091 2.81244 18.9487L1.51213 9.19875C1.48379 8.98678 1.50111 8.7712 1.56292 8.56647C1.62473 8.36174 1.7296 8.17259 1.8705 8.01171C2.0114 7.85083 2.18507 7.72194 2.37987 7.63369C2.57467 7.54543 2.78608 7.49985 2.99994 7.5H6.40963L11.4374 1.75594C11.5078 1.67613 11.5944 1.61222 11.6914 1.56844C11.7883 1.52466 11.8935 1.50201 11.9999 1.50201C12.1063 1.50201 12.2115 1.52466 12.3085 1.56844C12.4055 1.61222 12.4921 1.67613 12.5624 1.75594L17.5903 7.5H20.9999C21.2135 7.50014 21.4247 7.54589 21.6192 7.63421C21.8137 7.72253 21.987 7.85137 22.1277 8.01211C22.2684 8.17285 22.3731 8.36178 22.4349 8.56627C22.4967 8.77075 22.514 8.98607 22.4859 9.19781H22.4868ZM8.40275 7.5H15.5971L11.9999 3.38906L8.40275 7.5ZM20.9999 9H2.99994L4.30025 18.75H19.6996L20.9999 9ZM16.2037 11.175L15.6787 16.425C15.6683 16.5233 15.6775 16.6227 15.7056 16.7174C15.7338 16.8122 15.7804 16.9004 15.8428 16.9771C15.9052 17.0537 15.9821 17.1173 16.0691 17.1642C16.1562 17.211 16.2516 17.2402 16.3499 17.25C16.3752 17.2514 16.4006 17.2514 16.4259 17.25C16.6116 17.2498 16.7907 17.1806 16.9284 17.0559C17.0661 16.9312 17.1526 16.7598 17.1712 16.575L17.6962 11.325C17.7161 11.1271 17.6565 10.9294 17.5307 10.7754C17.4048 10.6213 17.2229 10.5236 17.0249 10.5037C16.827 10.4839 16.6293 10.5434 16.4753 10.6693C16.3213 10.7952 16.2236 10.9771 16.2037 11.175ZM7.79619 11.175C7.7763 10.9771 7.6786 10.7952 7.52458 10.6693C7.37057 10.5434 7.17286 10.4839 6.97494 10.5037C6.77702 10.5236 6.59511 10.6213 6.46923 10.7754C6.34334 10.9294 6.2838 11.1271 6.30369 11.325L6.82869 16.575C6.84734 16.7606 6.93453 16.9327 7.07321 17.0575C7.21189 17.1823 7.39211 17.2509 7.57869 17.25C7.60398 17.2514 7.62933 17.2514 7.65463 17.25C7.75263 17.2402 7.84773 17.2111 7.9345 17.1645C8.02127 17.1179 8.09801 17.0547 8.16034 16.9784C8.22267 16.9021 8.26937 16.8143 8.29778 16.72C8.32618 16.6257 8.33573 16.5267 8.32588 16.4287L7.79619 11.175Z" fill="#838383"/>
</svg>
