<svg width="24" height="24" viewBox="0 0 24 24" fill="none" xmlns="http://www.w3.org/2000/svg">
<path d="M12.7501 11.25V16.5C12.7501 16.6989 12.671 16.8897 12.5304 17.0303C12.3897 17.171 12.199 17.25 12.0001 17.25C11.8011 17.25 11.6104 17.171 11.4697 17.0303C11.3291 16.8897 11.2501 16.6989 11.2501 16.5V11.25C11.2501 11.0511 11.3291 10.8603 11.4697 10.7197C11.6104 10.579 11.8011 10.5 12.0001 10.5C12.199 10.5 12.3897 10.579 12.5304 10.7197C12.671 10.8603 12.7501 11.0511 12.7501 11.25ZM22.4869 9.19781L21.1876 18.9487C21.1394 19.3091 20.962 19.6397 20.6883 19.8791C20.4146 20.1184 20.0633 20.2502 19.6997 20.25H4.30037C3.9368 20.2502 3.5855 20.1184 3.31183 19.8791C3.03816 19.6397 2.86074 19.3091 2.81256 18.9487L1.51225 9.19875C1.48391 8.98678 1.50123 8.7712 1.56304 8.56647C1.62485 8.36174 1.72972 8.17259 1.87062 8.01171C2.01152 7.85083 2.1852 7.72194 2.37999 7.63369C2.57479 7.54543 2.7862 7.49985 3.00006 7.5H6.40975L11.4376 1.75594C11.5079 1.67613 11.5945 1.61222 11.6915 1.56844C11.7885 1.52466 11.8937 1.50201 12.0001 1.50201C12.1065 1.50201 12.2117 1.52466 12.3086 1.56844C12.4056 1.61222 12.4922 1.67613 12.5626 1.75594L17.5904 7.5H21.0001C21.2137 7.50014 21.4248 7.54589 21.6193 7.63421C21.8138 7.72253 21.9872 7.85137 22.1278 8.01211C22.2685 8.17285 22.3733 8.36178 22.435 8.56627C22.4968 8.77075 22.5142 8.98607 22.486 9.19781H22.4869ZM8.40287 7.5H15.5972L12.0001 3.38906L8.40287 7.5ZM21.0001 9H3.00006L4.30037 18.75H19.6997L21.0001 9ZM16.2038 11.175L15.6788 16.425C15.6684 16.5233 15.6776 16.6227 15.7058 16.7174C15.7339 16.8122 15.7805 16.9004 15.8429 16.9771C15.9053 17.0537 15.9822 17.1173 16.0692 17.1642C16.1563 17.211 16.2517 17.2402 16.3501 17.25C16.3754 17.2514 16.4007 17.2514 16.426 17.25C16.6118 17.2498 16.7908 17.1806 16.9285 17.0559C17.0662 16.9312 17.1527 16.7598 17.1713 16.575L17.6963 11.325C17.7162 11.1271 17.6567 10.9294 17.5308 10.7754C17.4049 10.6213 17.223 10.5236 17.0251 10.5037C16.8271 10.4839 16.6294 10.5434 16.4754 10.6693C16.3214 10.7952 16.2237 10.9771 16.2038 11.175ZM7.79631 11.175C7.77642 10.9771 7.67872 10.7952 7.52471 10.6693C7.37069 10.5434 7.17298 10.4839 6.97506 10.5037C6.77714 10.5236 6.59523 10.6213 6.46935 10.7754C6.34347 10.9294 6.28392 11.1271 6.30381 11.325L6.82881 16.575C6.84747 16.7606 6.93465 16.9327 7.07333 17.0575C7.21201 17.1823 7.39224 17.2509 7.57881 17.25C7.6041 17.2514 7.62946 17.2514 7.65475 17.25C7.75275 17.2402 7.84785 17.2111 7.93462 17.1645C8.02139 17.1179 8.09813 17.0547 8.16046 16.9784C8.2228 16.9021 8.2695 16.8143 8.2979 16.72C8.3263 16.6257 8.33585 16.5267 8.326 16.4287L7.79631 11.175Z" fill="#8B51FF"/>
</svg>
